<?xml version="1.0" encoding="utf-8"?>
<!-- Svg Vector Icons : http://www.onlinewebfonts.com/icon -->
<!DOCTYPE svg PUBLIC "-//W3C//DTD SVG 1.1//EN" "http://www.w3.org/Graphics/SVG/1.1/DTD/svg11.dtd">
<svg version="1.1" xmlns="http://www.w3.org/2000/svg" xmlns:xlink="http://www.w3.org/1999/xlink" x="0px" y="0px" viewBox="0 0 1000 1000" enable-background="new 0 0 1000 1000" xml:space="preserve">
<metadata> Svg Vector Icons : http://www.onlinewebfonts.com/icon </metadata>
<g><g transform="translate(0.000000,511.000000) scale(0.100000,-0.100000)"><path d="M2747.7,3412.7c-67.7-24.9-156.7-89.1-195.9-142.5c-67.7-92.6-74.8-156.8-85.5-776.6l-14.3-673.3h-684c-641.2,0-694.7-3.6-783.7-74.8l-92.6-71.3V929.8v-741l-320.6-14.3c-513-24.9-470.2,121.1-470.2-1652.9c0-822.9,3.6-1521.1,3.6-1553.2c3.6-35.6,39.2-92.6,81.9-135.4c74.8-71.3,114-71.3,2169.5-71.3c2059,0,2091.1,0,2183.7,74.8c92.6,71.3,92.6,74.8,92.6,570v495.2h395.4h399l-24.9-138.9c-39.2-252.9-82-317-267.2-409.7c-210.2-106.9-288.6-206.6-288.6-366.9c0-220.9,17.8-224.4,1378.6-224.4c1175.6,0,1225.4,3.6,1293.1,71.3c160.3,160.3,53.4,381.2-245.8,509.4c-203,89.1-217.3,99.7-267.2,277.9c-32,103.3-57,210.2-57,235.1c0,35.6,252.9,46.3,1318.1,46.3c1464.1,0,1474.8,0,1581.7,228c53.4,114,57,356.2,49.8,2582.7c-10.7,2429.5-10.7,2458-85.5,2557.8c-39.2,53.4-128.3,117.5-195.9,142.5C9441.3,3473.3,2922.2,3473.3,2747.7,3412.7z M9612.3,3188.3l78.4-53.4V1175.6V-780.1L7172.1-773L4650-762.3L4639.3,456l-7.1,1218.3l-92.6,71.3c-89.1,71.2-138.9,74.8-979.6,74.8h-887v641.2c0,594.9,3.6,644.8,71.2,712.5c71.3,71.3,117.6,71.3,3430.5,71.3C9156.3,3245.3,9541,3238.2,9612.3,3188.3z M4436.2-708.9v-2297.7l-1164.9-10.7l-1168.4-7.1v1492.6V-35.6l-85.5,99.8c-85.5,96.2-96.2,99.7-516.5,110.4l-431,14.3v683.9c0,377.6,10.7,698.2,24.9,708.9c10.7,14.3,769.4,21.4,1681.4,17.8l1660-10.7V-708.9z M1882-1538.9l7.1-1485.5l-790.8,7.1l-794.4,10.7l-10.7,1442.7c-3.6,794.4,0,1464.1,10.7,1489c10.7,35.6,188.8,42.8,790.8,35.6l776.6-10.7L1882-1538.9z M9690.6-1364.4c0-324.2-10.7-420.4-57-463.1c-49.9-49.8-327.7-57-2529.2-57H4632.1v463.1v463.1h2529.2h2529.2V-1364.4z M6773.1-2301.2c67.7-317.1,117.5-388.3,359.8-516.5c121.1-64.1,228-138.9,235.1-160.3c10.7-35.6-235.1-46.3-1147-46.3c-1001,0-1161.3,7.1-1161.3,53.4c0,28.5,67.7,85.5,153.2,128.2c245.8,124.7,299.2,195.9,366.9,480.9l64.1,263.6h541.5h545L6773.1-2301.2z"/><path d="M6007.2,2871.2c-106.9-106.9-32.1-163.9,206.6-153.2c188.8,10.7,217.3,21.4,228,85.5c7.1,53.4-14.2,81.9-71.3,99.7C6224.5,2938.9,6064.2,2924.7,6007.2,2871.2z"/><path d="M2637.3,1449.9c-96.2-117.5,64.1-256.5,171-149.6c46.3,46.3,49.9,71.3,21.4,121.1C2776.2,1503.3,2694.2,1514,2637.3,1449.9z"/><path d="M2509-2436.6c-39.2-96.2,35.6-128.3,274.3-117.5c199.5,10.7,228,17.8,228,81.9c0,64.1-28.5,71.3-242.2,81.9C2576.7-2383.2,2526.8-2390.3,2509-2436.6z"/><path d="M834.7-2543.5c-35.6-92.6,24.9-124.7,252.9-124.7c171,0,228,14.2,245.8,57c35.6,96.2-10.7,121.1-249.4,121.1C916.7-2490,849-2504.3,834.7-2543.5z"/></g></g>
</svg>