<?xml version="1.0" encoding="utf-8"?>
<!-- Generator: Adobe Illustrator 22.1.0, SVG Export Plug-In . SVG Version: 6.00 Build 0)  -->
<svg version="1.1" id="Layer_1" xmlns="http://www.w3.org/2000/svg" xmlns:xlink="http://www.w3.org/1999/xlink" x="0px" y="0px"
	 viewBox="0 0 512 512" style="enable-background:new 0 0 512 512;" xml:space="preserve">
<g>
	<path d="M243.2,342.4C243,342.8,242.8,343.2,243.2,342.4z M418.4,281.2c-14.1,0-28.1,3.2-40.8,9.5c-4.1-8.4-8.4-15.7-9.1-21.2
		c-0.8-6.4-1.8-10.2-0.8-17.8s5.4-18.4,5.3-19.1c-0.1-0.8-1-4.6-10.1-4.7c-9.1-0.1-16.9,1.8-17.8,4.1c-1.6,4.4-2.8,8.9-3.7,13.4
		c-1.6,8.2-18.1,37.6-27.5,52.9c-3.1-6-5.7-11.3-6.3-15.5c-0.8-6.4-1.8-10.2-0.8-17.8c1-7.6,5.4-18.4,5.3-19.1
		c-0.1-0.8-1-4.6-10-4.7c-9.1-0.1-16.9,1.8-17.8,4.1c-0.9,2.4-1.9,8-3.7,13.4c-1.8,5.4-23.8,54.4-29.6,67.1
		c-3,6.5-5.5,11.7-7.3,15.2c-0.3,0.6-0.5,0.9-0.6,1.2c0.2-0.4,0.4-0.7,0.4-0.6c-1.5,3-2.5,4.7-2.5,4.7v0.1c-1.2,2.3-2.5,4.3-3.2,4.3
		c-0.4,0-1.3-5.9,0.2-14c3.3-17,11.1-43.5,11-44.4c-0.1-0.5,1.5-5.1-5.1-7.5c-6.4-2.3-8.7,1.5-9.3,1.5c-0.6,0-1,1.4-1,1.4
		s7.1-29.8-13.6-29.8c-12.9,0-30.9,14.2-39.8,27.1c-5.6,3-17.6,9.6-30.2,16.5c-4.9,2.7-9.8,5.4-14.6,8c-0.4-0.4-0.6-0.7-1-1.1
		c-25.2-26.9-71.6-45.8-69.7-81.9c0.7-13.1,5.3-47.7,89.3-89.6c68.9-34.3,124-24.9,133.5-3.9c13.6,29.9-29.5,85.5-101,93.5
		c-27.3,3-41.6-7.5-45.2-11.5c-3.7-4.1-4.3-4.4-5.7-3.6c-2.3,1.3-0.8,4.9,0,7.1c2.1,5.6,10.9,15.4,25.9,20.3
		c13.1,4.3,45.1,6.7,83.8-8.3c43.4-16.7,77.3-63.4,67.3-102.4c-10.1-39.7-75.9-52.7-138-30.6c-37,13.1-77.1,33.8-105.9,60.8
		c-34.2,32.1-39.7,60-37.5,71.6c8,41.4,65.1,68.4,87.9,88.4c-1.1,0.6-2.2,1.2-3.2,1.8c-11.5,5.7-55,28.5-65.9,52.5
		c-12.3,27.3,2,46.8,11.5,49.5c29.4,8.2,59.5-6.5,75.6-30.7c16.2-24.1,14.2-55.6,6.8-70c-0.1-0.2-0.2-0.4-0.3-0.6c3-1.8,6-3.5,9-5.3
		c5.8-3.4,11.5-6.6,16.5-9.4c-2.8,7.6-4.9,16.7-5.9,30c-1.3,15.5,5.1,35.5,13.4,43.4c3.7,3.4,8.1,3.5,10.8,3.5
		c9.7,0,14.1-8,18.9-17.6c6-11.7,11.3-25.2,11.3-25.2s-6.6,36.7,11.5,36.7c6.6,0,13.2-8.5,16.2-12.9v0.1c0,0,0.1-0.3,0.5-0.8
		c0.7-1.1,1.1-1.7,1.1-1.7v-0.2c2.7-4.6,8.5-15,17.3-32.3c11.4-22.4,22.3-50.3,22.3-50.3c1.1,6.1,2.5,12.2,4.4,18.1
		c2,6.7,6.1,14,9.4,21.1c-2.7,3.7-4.3,5.8-4.3,5.8c0,0.1,0,0.1,0.1,0.1c-2.1,2.8-4.5,5.8-7,8.8c-9,10.7-19.7,22.9-21.1,26.4
		c-1.7,4.1-1.3,7.2,2,9.6c2.4,1.8,6.6,2.1,11,1.8c8.1-0.6,13.8-2.5,16.5-3.8c5.1-1.8,9.8-4.3,14.2-7.5c8.8-6.5,14.1-15.8,13.6-28
		c-0.3-6.8-2.5-13.5-5.1-19.8c0.8-1.1,1.6-2.3,2.4-3.5c13.9-20.3,24.7-42.6,24.7-42.6c1.1,6.1,2.5,12.2,4.4,18.1
		c1.7,5.7,5,12,8,18.1c-13.1,10.6-21.2,22.9-24,31c-5.2,15-1.1,21.7,6.5,23.3c3.4,0.7,8.4-0.9,12-2.5c5.4-1.8,10.6-4.4,15.2-7.8
		c8.8-6.5,17.3-15.5,16.7-27.8c-0.2-5.6-1.8-11.1-3.8-16.5c11-4.6,25.4-7.2,43.7-5.1c39.2,4.6,46.8,29,45.3,39.2
		c-1.5,10.2-9.7,15.9-12.4,17.6c-2.7,1.7-3.6,2.3-3.4,3.6c0.4,1.8,1.6,1.8,3.9,1.3c3.2-0.6,20.5-8.3,21.3-27.2
		C482.1,307.3,459.1,281,418.4,281.2L418.4,281.2z M116.6,383c-12.9,14.1-31.1,19.5-38.9,15c-8.4-4.9-5.1-25.7,10.9-40.7
		c9.7-9.1,22.2-17.6,30.5-22.8c1.9-1.1,4.6-2.8,8-4.9c0.6-0.4,0.8-0.5,0.8-0.5c0.6-0.4,1.3-0.8,2-1.2
		C135.9,349.3,130.3,368.1,116.6,383L116.6,383z M211.1,318.7c-4.5,11-14,39.2-19.8,37.7c-4.9-1.3-7.9-22.7-1-43.8
		c3.5-10.6,11-23.3,15.4-28.2c7.1-7.9,14.9-10.5,16.7-7.3C225,281.2,213.9,311.8,211.1,318.7L211.1,318.7z M289.2,356
		c-1.9,1-3.7,1.6-4.5,1.1c-0.6-0.4,0.8-1.7,0.8-1.7s9.8-10.5,13.6-15.3c2.3-2.8,4.9-6.1,7.7-9.8c0,0.4,0.1,0.7,0.1,1.1
		C306.7,344.1,294.6,352.6,289.2,356L289.2,356z M349.3,342.3c-1.4-1-1.2-4.3,3.5-14.6c1.8-4,6-10.8,13.4-17.2
		c0.8,2.4,1.3,5,1.3,7.6C367.5,333.9,356.1,339.8,349.3,342.3L349.3,342.3z"/>
</g>
</svg>
